<?xml version="1.0" standalone="no"?>
<!DOCTYPE svg PUBLIC "-//W3C//DTD SVG 20010904//EN"
 "http://www.w3.org/TR/2001/REC-SVG-20010904/DTD/svg10.dtd">
<svg version="1.0" xmlns="http://www.w3.org/2000/svg"
 width="647.000000pt" height="629.000000pt" viewBox="0 0 647.000000 629.000000"
 preserveAspectRatio="xMidYMid meet">

<g transform="translate(0.000000,629.000000) scale(0.100000,-0.100000)"
fill="#000000" stroke="none">
<path d="M2930 5950 c-117 -13 -363 -65 -495 -105 -880 -266 -1583 -946 -1882
-1820 -41 -122 -73 -245 -109 -430 -28 -137 -28 -148 -29 -485 0 -338 1 -348
28 -485 52 -258 101 -425 180 -615 277 -663 782 -1189 1432 -1492 222 -104
379 -155 660 -215 l170 -37 370 -1 c368 0 371 0 505 28 270 56 429 104 625
187 671 285 1220 834 1505 1505 83 196 131 355 187 625 28 134 28 137 28 505
l-1 370 -37 170 c-60 281 -111 438 -215 660 -363 779 -1061 1358 -1887 1564
-260 65 -332 73 -655 76 -168 2 -339 0 -380 -5z m710 -83 c276 -36 562 -124
835 -257 316 -155 509 -293 756 -539 317 -318 545 -689 680 -1106 92 -286 149
-683 135 -945 -44 -790 -340 -1434 -901 -1958 -421 -392 -964 -645 -1529 -713
-235 -28 -374 -33 -521 -20 -392 36 -629 93 -954 230 -160 68 -382 199 -557
329 -193 143 -441 396 -574 583 -223 315 -361 614 -451 974 -105 423 -105 917
1 1336 126 497 372 932 735 1294 261 261 554 459 895 603 214 90 487 164 695
187 72 8 144 16 160 19 63 9 485 -3 595 -17z"/>
<path d="M3045 5804 c-76 -6 -350 -53 -440 -76 -107 -26 -264 -76 -295 -92
-14 -7 -43 -19 -65 -26 -78 -25 -334 -158 -451 -235 -170 -112 -290 -210 -440
-360 -148 -147 -245 -266 -359 -439 -80 -122 -188 -329 -231 -442 -13 -35 -28
-72 -34 -81 -33 -60 -99 -316 -136 -528 -26 -148 -28 -179 -28 -420 0 -247 2
-269 32 -439 34 -188 43 -227 97 -396 260 -814 929 -1477 1755 -1738 117 -37
173 -50 345 -82 149 -28 198 -33 395 -37 284 -7 487 15 735 78 106 27 295 87
309 98 6 4 29 14 51 21 98 32 323 151 485 259 275 182 539 444 725 721 252
375 404 792 456 1250 10 96 10 431 0 535 -17 164 -66 399 -113 545 -289 899
-1014 1581 -1923 1809 -199 50 -381 73 -605 76 -118 1 -237 1 -265 -1z m640
-42 c278 -49 503 -119 735 -230 565 -271 1039 -756 1291 -1322 204 -457 277
-952 214 -1450 -129 -1011 -843 -1876 -1815 -2200 -544 -181 -1126 -183 -1670
-7 -408 132 -743 334 -1054 636 -420 409 -688 932 -783 1526 -23 140 -25 620
-5 760 21 138 68 337 113 473 265 809 916 1457 1726 1717 135 43 340 90 458
104 50 6 104 13 120 15 17 2 149 3 295 0 202 -2 291 -8 375 -22z"/>
<path d="M3080 5542 c0 -33 3 -100 6 -150 l7 -92 84 0 84 0 -3 33 c-3 31 -5
32 -48 32 l-45 0 -6 60 c-4 33 -7 86 -8 118 l-1 57 -35 0 -35 0 0 -58z"/>
<path d="M3355 5569 c-87 -77 -63 -235 41 -269 74 -25 144 5 175 73 24 54 24
108 -1 157 -25 49 -64 70 -129 70 -42 0 -56 -5 -86 -31z m124 -29 c70 -37 38
-190 -39 -190 -70 0 -93 112 -35 174 26 28 45 32 74 16z"/>
<path d="M2845 5571 c-27 -6 -30 -9 -27 -41 4 -48 41 -252 46 -257 2 -3 41 1
86 8 76 11 81 13 76 33 -3 11 -6 25 -6 30 0 5 -21 6 -46 3 -56 -6 -59 0 -72
126 -6 49 -14 92 -18 96 -5 4 -22 5 -39 2z"/>
<path d="M3671 5425 c-18 -81 -31 -148 -29 -149 2 -2 15 -6 30 -10 24 -5 28
-3 34 21 22 98 30 124 38 124 5 0 25 -41 44 -91 28 -73 39 -91 59 -96 14 -4
28 -3 33 2 12 13 70 278 62 286 -4 3 -18 8 -32 10 -26 3 -24 6 -50 -100 -6
-23 -15 -40 -19 -38 -4 3 -21 40 -36 83 -33 91 -31 89 -71 97 l-30 7 -33 -146z"/>
<path d="M2607 5521 l-69 -16 6 -35 c8 -52 61 -248 69 -256 4 -4 45 4 92 17
81 22 86 25 83 49 -3 27 -10 28 -84 15 -39 -7 -42 -6 -48 20 -8 31 5 44 39 45
36 1 49 15 35 40 -10 19 -17 21 -55 16 -38 -6 -44 -5 -50 15 -9 26 -2 32 53
48 35 10 42 16 42 36 0 30 -12 30 -113 6z"/>
<path d="M2344 5434 l-30 -15 13 -86 c8 -47 13 -93 11 -102 -2 -10 -26 13 -66
62 -35 42 -65 77 -67 77 -13 0 -85 -33 -85 -39 0 -3 22 -67 49 -141 41 -114
51 -134 67 -132 11 2 23 7 28 12 7 7 -9 69 -40 155 -10 28 46 -25 82 -77 29
-41 48 -46 80 -24 19 14 20 20 12 81 -15 112 -7 120 36 33 21 -43 40 -78 43
-78 13 0 64 32 61 39 -2 5 -32 63 -68 130 -39 74 -70 121 -80 121 -8 0 -29 -7
-46 -16z"/>
<path d="M4145 5353 c-56 -120 -62 -153 -39 -194 24 -41 75 -69 128 -69 33 0
45 7 78 40 21 23 38 46 38 53 0 7 14 41 30 75 17 35 30 66 30 68 0 9 -64 36
-67 28 -2 -5 -21 -47 -43 -94 -44 -96 -68 -119 -104 -102 -40 18 -39 42 4 135
22 48 40 93 40 101 0 10 -39 36 -55 36 -2 0 -21 -35 -40 -77z"/>
<path d="M4500 5263 c0 -5 -34 -60 -75 -123 -41 -63 -75 -118 -75 -121 0 -5
45 -29 55 -29 3 0 23 29 46 65 22 36 44 65 47 65 4 0 8 -46 10 -102 2 -82 6
-104 20 -114 9 -8 22 -14 28 -14 11 0 164 230 164 247 0 14 -52 36 -59 25 -3
-5 -21 -32 -40 -60 -18 -29 -37 -52 -42 -52 -5 0 -9 42 -9 94 0 89 -1 95 -25
110 -26 17 -45 21 -45 9z"/>
<path d="M1825 5154 c-32 -24 -63 -48 -68 -53 -13 -13 161 -253 177 -244 53
33 136 98 136 108 0 6 -6 19 -13 29 -12 16 -16 15 -57 -18 l-45 -36 -25 26
c-28 28 -30 23 33 69 16 11 17 16 5 34 -16 26 -23 26 -59 0 -24 -17 -33 -18
-44 -9 -24 20 -17 38 25 66 44 29 45 31 26 57 -18 23 -23 22 -91 -29z"/>
<path d="M3075 5099 c-575 -50 -1109 -360 -1451 -844 -261 -370 -390 -836
-355 -1287 28 -358 131 -667 319 -953 306 -464 786 -781 1327 -875 1257 -219
2393 773 2342 2045 -23 574 -274 1086 -712 1455 -409 344 -926 506 -1470 459z
m471 -28 c283 -40 562 -145 794 -298 105 -70 112 -74 190 -139 381 -316 622
-749 695 -1252 31 -209 31 -332 1 -542 -64 -444 -245 -811 -557 -1128 -311
-314 -690 -504 -1139 -568 -210 -30 -333 -30 -542 1 -503 73 -936 314 -1252
695 -64 77 -71 87 -132 179 -358 540 -425 1233 -180 1838 268 659 885 1134
1581 1217 72 9 144 18 160 20 56 8 239 -3 381 -23z"/>
<path d="M3020 5000 c-36 -4 -122 -22 -192 -39 -539 -129 -983 -469 -1243
-951 -87 -162 -136 -294 -187 -508 -32 -136 -32 -139 -32 -392 l-1 -255 37
-155 c65 -280 165 -501 324 -716 268 -364 641 -613 1084 -724 165 -42 246 -51
455 -51 203 0 272 8 453 52 598 145 1089 576 1319 1159 44 111 96 309 113 432
14 93 14 409 1 510 -14 108 -64 299 -107 415 -189 506 -602 921 -1104 1111
-58 22 -135 47 -172 56 -225 56 -237 57 -463 61 -121 2 -249 0 -285 -5z m608
-74 c822 -170 1414 -845 1483 -1692 19 -228 -17 -504 -97 -731 -45 -128 -151
-340 -219 -438 -122 -175 -313 -366 -485 -486 -103 -72 -313 -177 -443 -223
-228 -80 -505 -117 -733 -97 -294 24 -563 106 -795 241 -469 274 -789 720
-897 1250 -25 124 -27 154 -27 360 0 263 18 376 92 593 93 274 228 492 432
700 153 156 276 248 471 350 190 100 389 161 645 201 17 2 125 3 240 1 179 -3
228 -7 333 -29z"/>
<path d="M2873 4723 l-70 -98 -158 0 -157 0 -51 -89 -52 -89 -60 -3 c-78 -3
-148 -28 -205 -71 -45 -35 -120 -133 -120 -159 0 -8 0 -17 0 -20 0 -4 35 -6
78 -5 195 5 367 -70 506 -221 67 -72 136 -193 151 -266 7 -34 30 -53 160 -129
39 -23 133 -78 210 -123 77 -46 143 -85 147 -87 4 -2 43 18 85 45 43 27 156
98 250 158 l173 109 15 50 c21 71 86 182 141 244 135 150 320 227 522 219 50
-2 92 -3 92 -2 0 17 -31 80 -57 117 -64 87 -158 136 -273 141 l-65 3 -51 89
-50 89 -155 -3 -155 -3 -69 96 c-38 53 -75 99 -83 102 -7 3 -81 -20 -163 -51
l-150 -56 -130 50 c-195 76 -173 79 -256 -37z m174 -155 c48 -85 96 -206 118
-298 30 -125 32 -407 3 -398 -30 10 -123 218 -163 363 -28 103 -33 405 -7 405
5 0 26 -33 49 -72z m493 -78 c0 -156 -14 -244 -59 -374 -31 -89 -109 -237
-129 -244 -26 -8 -27 215 -1 363 25 142 149 419 179 400 6 -4 10 -67 10 -145z
m-861 -97 c101 -102 168 -200 228 -333 42 -93 79 -227 70 -252 -6 -19 -169
143 -226 226 -68 99 -119 205 -153 315 -30 101 -34 131 -17 131 6 0 50 -39 98
-87z m1271 76 c0 -6 -12 -55 -26 -107 -30 -109 -82 -226 -145 -321 -43 -66
-204 -241 -222 -241 -14 0 0 91 25 165 56 167 141 308 262 433 74 76 106 98
106 71z"/>
<path d="M1790 3924 c13 -21 29 -46 36 -54 60 -71 163 -312 199 -464 56 -241
55 -471 -4 -708 -40 -158 -123 -350 -197 -454 -14 -21 -14 -21 133 -27 350
-14 680 -153 946 -397 120 -110 247 -282 323 -435 l36 -72 47 92 c95 181 207
324 358 453 187 161 366 254 613 318 114 30 158 36 283 41 81 3 147 7 147 9 0
2 -12 20 -26 41 -76 111 -156 309 -195 483 -21 92 -24 130 -24 310 0 224 7
273 68 465 35 110 112 270 177 365 23 34 40 63 38 64 -3 3 -742 -361 -765
-377 -8 -5 -1 -25 22 -62 39 -66 90 -191 105 -258 31 -144 20 -349 -26 -463
-13 -33 -24 -65 -24 -71 0 -20 -99 -175 -149 -232 -98 -113 -256 -215 -405
-260 -103 -32 -108 -30 -104 26 3 47 4 48 43 55 94 16 332 143 322 172 -2 6
-48 37 -103 69 -188 112 -389 230 -394 233 -3 1 -62 -33 -130 -76 -69 -44
-138 -87 -153 -95 -16 -9 -74 -46 -130 -82 l-100 -65 74 -48 c72 -46 208 -105
259 -112 22 -3 25 -8 28 -50 4 -57 2 -58 -102 -27 -331 98 -580 400 -616 744
-9 89 -1 238 16 300 17 61 68 181 100 235 20 34 34 63 32 65 -1 2 -174 88
-383 190 -209 103 -384 190 -389 193 -6 3 1 -12 14 -34z m439 -346 c72 -35
131 -68 131 -74 0 -6 -12 -39 -26 -74 -89 -219 -88 -511 1 -734 l26 -66 -81
-96 c-46 -52 -80 -97 -77 -100 2 -3 60 5 128 17 l122 22 66 -73 c81 -90 190
-173 302 -228 90 -44 241 -92 293 -92 17 0 36 -4 43 -8 7 -4 30 -59 53 -122
22 -63 43 -122 46 -130 3 -8 26 43 51 115 26 72 51 133 57 137 6 4 24 8 40 8
39 0 137 26 221 58 142 54 268 142 379 264 l63 71 123 -22 c67 -12 124 -20
127 -17 3 2 -32 48 -77 101 l-82 96 26 58 c95 213 96 542 1 750 -14 29 -25 57
-25 62 0 10 267 145 274 138 2 -2 -9 -44 -25 -94 -60 -183 -73 -271 -73 -490
-1 -152 4 -221 17 -287 24 -118 67 -257 111 -351 24 -54 32 -79 23 -82 -7 -3
-59 -11 -117 -19 -139 -20 -355 -91 -488 -162 -210 -111 -397 -270 -537 -458
-43 -58 -81 -106 -85 -106 -4 0 -23 25 -43 55 -80 120 -238 283 -366 378 -209
154 -483 267 -724 297 -53 7 -97 17 -97 21 0 5 14 39 30 76 97 214 135 420
127 688 -6 194 -22 289 -75 448 -16 48 -26 87 -21 87 4 0 67 -28 138 -62z"/>
<path d="M3775 3588 c-132 -83 -184 -116 -225 -142 -25 -16 -82 -52 -128 -81
l-83 -52 49 -32 c27 -17 55 -31 63 -31 8 0 42 17 75 38 32 21 130 83 217 138
86 54 157 101 157 104 0 3 -17 24 -38 48 l-37 42 -50 -32z"/>
<path d="M2643 3557 l-33 -42 22 -19 c13 -10 43 -29 68 -42 25 -14 113 -65
195 -115 83 -49 155 -92 162 -95 11 -5 113 54 113 66 0 9 -475 290 -489 290
-3 -1 -21 -20 -38 -43z"/>
<path d="M3830 3384 c-58 -36 -121 -76 -140 -88 -19 -12 -62 -40 -94 -60 l-59
-38 22 -17 c13 -10 38 -25 56 -35 l34 -18 170 107 c94 59 171 114 171 122 0
18 -38 93 -48 93 -4 0 -54 -30 -112 -66z"/>
<path d="M2540 3380 c-13 -27 -22 -51 -19 -53 14 -11 348 -207 353 -207 9 0
106 63 106 69 0 3 -28 22 -63 42 -34 20 -123 73 -199 118 -75 45 -140 81 -145
81 -5 0 -20 -22 -33 -50z"/>
<path d="M3196 3225 l-48 -33 28 -18 c16 -9 41 -25 56 -35 27 -19 28 -19 65 6
84 54 83 48 21 83 -30 18 -59 32 -64 31 -5 0 -31 -15 -58 -34z"/>
<path d="M3903 3192 c-57 -37 -116 -75 -133 -84 -16 -9 -30 -21 -30 -27 0 -9
251 -162 277 -169 17 -5 28 59 27 168 -1 91 -17 181 -32 179 -4 0 -53 -31
-109 -67z"/>
<path d="M2494 3228 c-14 -22 -17 -228 -5 -284 7 -30 15 -54 19 -54 4 1 45 25
92 55 47 30 109 68 138 85 29 18 50 36 47 40 -3 5 -49 35 -103 66 -53 31 -114
67 -134 80 -43 28 -44 28 -54 12z"/>
<path d="M3013 3107 c-29 -17 -53 -35 -53 -38 0 -8 95 -59 110 -59 19 0 100
53 100 66 0 8 -40 33 -100 61 -3 1 -29 -12 -57 -30z"/>
<path d="M3398 3113 c-27 -14 -48 -30 -48 -35 0 -8 68 -54 96 -65 15 -5 114
53 114 68 0 9 -92 59 -107 59 -4 0 -29 -12 -55 -27z"/>
<path d="M3593 2997 c-29 -18 -52 -34 -53 -37 0 -3 37 -26 83 -52 45 -26 138
-81 207 -122 l125 -75 23 45 c13 25 21 52 18 59 -4 11 -336 216 -348 215 -2
-1 -26 -15 -55 -33z"/>
<path d="M2704 2914 c-93 -59 -171 -108 -173 -110 -7 -6 33 -96 45 -101 6 -2
65 29 130 71 66 41 156 98 202 126 l83 52 -57 34 c-31 19 -57 34 -58 34 -2 0
-79 -48 -172 -106z"/>
<path d="M3197 2987 l-48 -31 52 -33 c29 -18 57 -33 63 -33 13 0 106 60 106
69 0 9 -98 61 -113 60 -6 0 -34 -15 -60 -32z"/>
<path d="M3410 2880 c-25 -16 -49 -32 -55 -35 -13 -6 -6 -10 140 -97 237 -140
338 -198 345 -198 9 0 70 76 70 88 0 5 -10 13 -22 19 -13 6 -114 65 -226 132
-111 66 -203 121 -205 121 -1 0 -22 -14 -47 -30z"/>
<path d="M2965 2840 c-49 -33 -108 -70 -130 -83 -104 -63 -159 -98 -185 -119
l-29 -23 38 -44 38 -43 59 38 c73 46 94 60 269 169 77 49 144 91 148 95 10 8
-84 70 -104 69 -8 0 -54 -27 -104 -59z"/>
<path d="M4718 4951 c-49 -60 -88 -114 -88 -120 0 -11 48 -47 53 -40 2 2 44
54 94 115 l92 112 -23 21 c-12 11 -26 21 -32 21 -5 0 -48 -49 -96 -109z"/>
<path d="M1643 5011 c-13 -11 -23 -24 -23 -30 0 -13 178 -221 188 -221 4 0 18
9 31 19 l25 19 -98 116 c-54 64 -99 116 -100 116 0 -1 -11 -9 -23 -19z"/>
<path d="M4858 4823 l-66 -138 27 -28 27 -28 104 47 c87 39 161 77 179 91 8 6
-32 43 -47 43 -7 0 -50 -19 -93 -41 -44 -23 -82 -39 -86 -36 -3 3 15 46 41 96
l46 90 -29 20 c-16 12 -31 21 -33 21 -3 0 -34 -62 -70 -137z"/>
<path d="M1489 4867 c-48 -33 -79 -83 -79 -130 0 -106 127 -200 213 -156 39
20 86 72 98 108 12 35 11 36 -41 84 l-53 48 -38 -37 c-22 -21 -39 -44 -39 -51
0 -21 29 -27 55 -13 20 11 27 11 40 0 22 -18 19 -36 -11 -59 -40 -31 -80 -27
-119 12 -19 19 -37 45 -40 59 -8 33 16 73 56 90 34 15 36 28 11 52 -18 15 -21
15 -53 -7z"/>
<path d="M5100 4624 c-47 -36 -97 -75 -112 -87 -16 -11 -28 -24 -28 -29 0 -9
42 -69 82 -117 24 -28 30 -30 48 -19 26 17 26 23 -10 68 -36 46 -37 53 -5 70
24 13 27 11 54 -20 25 -30 31 -33 45 -21 21 18 20 27 -5 63 -22 30 -22 30 -2
49 20 20 20 20 58 -26 l38 -47 20 20 20 21 -52 70 c-29 39 -56 71 -59 71 -4
-1 -45 -30 -92 -66z"/>
<path d="M1246 4584 c-27 -36 -49 -71 -50 -78 -1 -14 214 -176 233 -176 5 0
32 32 60 72 l51 72 -20 21 -21 20 -20 -27 c-52 -70 -54 -72 -77 -57 -27 17
-28 34 -2 66 25 32 25 40 -1 54 -19 10 -25 7 -46 -20 -27 -34 -44 -39 -62 -17
-10 12 -6 23 18 57 29 40 30 43 15 61 -10 10 -20 18 -24 18 -3 0 -28 -29 -54
-66z"/>
<path d="M5305 4421 c-123 -69 -181 -103 -188 -110 -9 -9 12 -61 25 -61 5 0
26 9 48 20 21 11 41 17 43 12 3 -4 -7 -31 -21 -61 -24 -50 -24 -55 -9 -79 8
-15 19 -28 24 -29 5 -2 20 19 33 47 29 61 31 63 64 49 52 -24 116 25 116 89 0
32 -62 152 -78 152 -4 0 -29 -13 -57 -29z m66 -88 c9 -26 -15 -63 -40 -63 -10
0 -26 11 -35 25 -16 24 -16 25 16 45 38 23 48 22 59 -7z"/>
<path d="M1105 4371 l-15 -31 47 -24 c27 -13 57 -31 67 -39 19 -14 18 -15 -20
-20 -21 -3 -64 -9 -95 -12 -47 -5 -58 -10 -72 -34 -20 -35 -27 -29 127 -111
l120 -63 18 23 c10 12 18 25 18 29 0 3 -31 22 -70 41 -38 19 -69 40 -70 46 0
7 37 14 100 19 97 6 101 8 115 35 l15 29 -128 68 c-70 37 -130 69 -134 71 -4
2 -14 -10 -23 -27z"/>
<path d="M5424 4126 c-24 -20 -28 -32 -32 -90 -3 -49 -9 -69 -20 -73 -23 -10
-52 33 -52 78 0 41 -1 42 -39 32 -21 -5 -23 -10 -17 -51 12 -86 64 -138 126
-125 48 9 70 46 70 115 0 45 4 60 16 65 23 9 44 -23 44 -64 0 -33 10 -40 44
-27 21 8 21 56 0 97 -34 68 -91 86 -140 43z"/>
<path d="M956 4028 c-21 -19 -83 -156 -74 -163 2 -1 48 -18 103 -38 55 -19
117 -43 138 -51 37 -16 37 -16 47 10 6 15 13 31 16 36 3 4 -3 11 -13 15 -100
35 -102 46 -13 63 59 11 70 21 70 62 l0 26 -55 -14 c-57 -15 -75 -13 -75 11 0
22 -59 65 -90 65 -16 0 -40 -10 -54 -22z m94 -78 c11 -20 2 -60 -13 -60 -29 0
-77 26 -77 41 0 42 70 57 90 19z"/>
<path d="M5490 3851 c-74 -24 -137 -45 -138 -47 -2 -1 -1 -17 3 -34 8 -37 1
-38 178 18 l118 37 -6 30 c-3 16 -9 32 -13 35 -4 3 -68 -14 -142 -39z"/>
<path d="M5642 3752 c-21 -3 -22 -7 -17 -47 8 -50 16 -45 -123 -74 -51 -10
-94 -20 -96 -22 -8 -9 7 -69 18 -69 6 0 58 11 116 24 113 26 120 25 120 -26 0
-30 21 -37 50 -18 13 8 12 22 -8 117 -12 59 -25 110 -30 113 -4 3 -17 4 -30 2z"/>
<path d="M963 3695 c-139 -19 -139 -19 -146 -62 -4 -20 -5 -38 -4 -39 21 -20
264 -161 269 -156 4 4 9 18 13 32 4 20 0 28 -24 41 -28 17 -29 18 -19 65 11
52 21 64 54 64 20 0 33 23 34 58 0 15 -51 14 -177 -3z m37 -92 c-1 -40 -15
-46 -54 -21 -19 12 -36 26 -36 31 0 4 20 7 45 7 36 0 45 -3 45 -17z"/>
<path d="M5635 3410 c-62 -46 -88 -59 -117 -60 -57 0 -68 -8 -68 -47 l0 -35
54 6 c49 7 62 3 155 -38 l101 -45 0 29 c0 36 -16 52 -74 74 -25 10 -46 22 -46
27 0 5 24 25 54 44 53 34 54 36 45 67 -5 18 -9 34 -9 35 0 9 -24 -5 -95 -57z"/>
<path d="M779 3383 c-6 -16 -9 -50 -6 -76 7 -79 67 -127 159 -127 94 0 148 55
148 149 0 57 -8 71 -41 71 -28 0 -29 -1 -22 -45 11 -80 -47 -123 -130 -96 -54
18 -65 52 -42 129 7 20 4 22 -24 22 -25 0 -34 -6 -42 -27z"/>
<path d="M940 2688 c-52 -11 -96 -21 -97 -22 -1 -1 0 -12 4 -25 5 -19 10 -22
37 -17 28 5 33 2 51 -32 17 -31 26 -37 57 -40 56 -5 82 26 73 85 -8 53 -15 73
-24 72 -3 -1 -49 -10 -101 -21z m85 -63 c0 -26 -52 -35 -62 -10 -7 20 14 36
42 33 12 -2 20 -11 20 -23z"/>
<path d="M5486 2687 c-54 -54 -26 -122 59 -147 53 -15 111 6 120 43 18 71 -19
117 -104 125 -43 4 -53 1 -75 -21z m132 -43 c51 -36 5 -74 -67 -54 -43 11 -58
28 -47 55 7 20 85 20 114 -1z"/>
<path d="M5454 2480 c-29 -11 -54 -48 -54 -78 0 -14 14 -38 34 -58 30 -30 40
-34 85 -34 64 0 91 23 91 78 0 45 -20 67 -77 88 -44 15 -51 16 -79 4z m75 -51
c41 -15 57 -42 35 -64 -18 -18 -63 -13 -101 11 -22 14 -30 43 -16 57 10 10 46
8 82 -4z"/>
<path d="M993 2443 c-73 -23 -83 -29 -83 -50 0 -12 6 -23 13 -23 23 1 186 55
186 63 4 45 -3 46 -116 10z"/>
<path d="M1115 2338 c-2 -7 -3 -24 -2 -37 2 -20 -7 -27 -63 -48 -78 -29 -85
-35 -71 -61 11 -20 12 -20 78 9 83 35 91 35 99 4 7 -28 6 -27 28 -19 21 8 20
15 -11 95 -25 64 -48 87 -58 57z"/>
<path d="M5346 2247 c-33 -33 -34 -76 -3 -105 23 -22 62 -28 84 -14 6 4 17 21
23 37 10 27 12 28 22 12 5 -10 7 -29 4 -42 -4 -16 -1 -25 10 -29 22 -8 21 -9
27 20 13 67 -34 132 -101 141 -34 5 -45 1 -66 -20z m82 -38 c5 -27 -26 -51
-49 -39 -19 11 -26 40 -12 54 13 13 58 1 61 -15z"/>
<path d="M1212 2142 c-7 -5 -11 -23 -10 -42 3 -31 0 -34 -59 -64 -76 -39 -77
-40 -64 -65 11 -20 13 -20 87 17 l75 37 18 -24 c18 -23 41 -22 41 2 0 11 -68
147 -73 147 -1 0 -8 -4 -15 -8z"/>
<path d="M5260 2071 c-24 -46 -1 -104 26 -66 13 17 17 17 78 -14 65 -33 86
-34 86 -3 0 12 -28 31 -85 60 -47 23 -87 42 -90 42 -2 0 -9 -9 -15 -19z"/>
<path d="M1292 1904 c-19 -13 -22 -24 -22 -75 0 -72 -22 -81 -48 -19 -16 37
-19 40 -36 27 -19 -14 -18 -15 4 -54 28 -50 60 -67 95 -51 29 13 38 38 33 93
-2 31 1 40 15 43 12 3 19 -5 23 -27 5 -21 12 -31 25 -31 30 0 24 47 -10 81
-34 33 -47 35 -79 13z"/>
<path d="M5055 1757 c-18 -28 -20 -24 64 -146 40 -58 45 -62 57 -47 10 14 10
24 2 42 -10 20 -8 28 12 49 16 17 30 23 46 19 16 -4 25 0 34 16 6 12 10 23 8
25 -2 1 -42 15 -91 29 -48 15 -94 29 -101 32 -9 3 -21 -5 -31 -19z m105 -66
c0 -27 -12 -33 -32 -14 -26 23 -23 41 7 35 15 -2 25 -11 25 -21z"/>
<path d="M1388 1679 c-40 -34 -73 -65 -73 -70 0 -19 78 -89 99 -89 26 0 56 29
56 53 0 10 8 17 19 17 26 0 51 26 51 53 0 22 -54 97 -70 97 -4 0 -41 -28 -82
-61z m106 -15 c8 -21 -1 -34 -24 -34 -22 0 -33 23 -17 39 16 16 34 14 41 -5z
m-66 -67 c3 -21 -1 -27 -16 -27 -11 0 -25 7 -32 15 -11 13 -10 18 6 30 26 19
38 14 42 -18z"/>
<path d="M4917 1593 c-16 -15 -3 -34 68 -98 72 -64 77 -67 90 -49 14 18 10 24
-57 87 -69 64 -87 75 -101 60z"/>
<path d="M1567 1503 c-70 -70 -76 -107 -26 -154 49 -46 80 -40 152 30 53 51
59 61 48 75 -7 9 -16 16 -20 16 -3 0 -30 -23 -59 -51 -58 -56 -94 -63 -100
-20 -3 18 10 37 49 77 45 45 50 55 39 68 -7 9 -16 16 -19 16 -4 0 -33 -26 -64
-57z"/>
<path d="M4812 1488 c-18 -18 -15 -29 20 -65 17 -18 30 -35 27 -37 -2 -3 -33
2 -68 11 -57 14 -64 14 -78 0 -15 -14 -11 -22 45 -85 82 -93 86 -96 102 -77
14 16 10 23 -39 78 -21 23 -22 27 -7 27 10 0 43 -7 74 -16 52 -16 56 -15 68 1
12 16 5 27 -57 97 -39 43 -72 78 -73 78 -1 0 -7 -5 -14 -12z"/>
<path d="M1794 1343 c-9 -16 -35 -49 -56 -74 -43 -52 -47 -65 -17 -74 15 -5
25 -1 35 14 24 33 35 25 33 -25 -2 -31 2 -48 12 -55 22 -14 29 -11 29 14 0 46
12 67 36 67 26 0 54 34 54 65 0 24 -68 95 -92 95 -9 0 -24 -12 -34 -27z m71
-63 c0 -18 -6 -26 -23 -28 -27 -4 -40 22 -22 44 19 22 45 13 45 -16z"/>
<path d="M4547 1268 c-16 -12 -16 -19 7 -110 29 -115 31 -121 55 -109 12 7 16
18 14 38 -4 23 1 31 26 46 25 15 34 16 50 5 17 -11 23 -10 38 5 12 11 14 20 8
25 -112 77 -166 112 -173 112 -4 0 -16 -6 -25 -12z m71 -70 c17 -17 15 -40 -4
-36 -21 4 -39 48 -21 48 7 0 18 -5 25 -12z"/>
<path d="M1992 1184 c-29 -20 -52 -66 -52 -104 0 -53 79 -114 125 -96 13 5 55
63 55 76 0 3 -16 15 -35 28 -30 19 -36 20 -41 7 -4 -8 -1 -21 5 -29 13 -16 4
-46 -14 -46 -20 0 -45 35 -45 62 0 28 41 78 64 78 8 0 29 -12 46 -27 26 -21
33 -24 41 -12 13 21 12 25 -22 53 -36 30 -92 35 -127 10z"/>
<path d="M4401 1171 c-11 -7 -12 -20 -1 -75 7 -37 10 -69 7 -72 -3 -3 -27 15
-54 40 -52 50 -64 54 -83 31 -10 -12 -4 -22 36 -59 106 -94 112 -98 134 -86
23 12 24 27 9 119 -19 121 -19 120 -48 102z"/>
<path d="M2207 1008 c-39 -83 -43 -94 -29 -105 24 -19 31 -16 49 22 19 39 21
40 58 23 29 -13 30 -17 11 -63 -14 -32 -13 -34 6 -41 26 -8 29 -4 74 94 31 69
35 85 23 93 -24 15 -37 10 -48 -21 -11 -33 -18 -35 -56 -18 -19 8 -25 17 -21
30 3 10 9 27 12 37 4 13 -1 23 -14 30 -19 10 -24 4 -65 -81z"/>
<path d="M4116 1027 c-17 -13 -16 -18 20 -103 20 -49 39 -91 40 -93 4 -4 97
30 109 41 5 5 3 14 -7 24 -12 13 -20 14 -36 5 -11 -6 -24 -11 -27 -11 -3 0
-22 34 -41 75 -19 41 -36 75 -37 75 -2 0 -11 -6 -21 -13z"/>
<path d="M3987 979 c-9 -6 -20 -28 -23 -49 -8 -48 -20 -50 -57 -11 -18 20 -33
27 -47 24 -36 -9 -32 -21 25 -69 34 -30 59 -61 67 -84 11 -33 16 -36 35 -29
19 7 20 11 12 46 -7 27 -6 57 4 106 15 71 13 82 -16 66z"/>
<path d="M2625 937 c-17 -49 -45 -180 -40 -187 13 -22 43 -10 50 19 6 27 10
30 45 28 53 -2 82 25 78 72 -2 27 -10 39 -33 52 -42 23 -95 32 -100 16z m69
-43 c20 -8 21 -38 1 -54 -19 -15 -35 -5 -35 24 0 33 8 40 34 30z"/>
<path d="M3680 903 c-43 -16 -62 -58 -42 -91 5 -7 31 -21 58 -30 62 -23 65
-46 7 -50 -35 -3 -43 -7 -43 -23 0 -15 7 -19 38 -19 109 1 133 95 33 130 -25
8 -46 20 -48 27 -5 15 31 26 57 18 16 -5 20 -2 20 19 0 23 -4 26 -32 25 -18 0
-40 -3 -48 -6z"/>
<path d="M2849 827 c-6 -40 -12 -88 -13 -107 l-1 -34 59 -9 c45 -6 61 -5 67 5
14 22 10 28 -18 28 -37 0 -56 13 -51 36 3 15 11 18 36 16 26 -3 32 0 32 17 0
14 -8 21 -27 23 -20 2 -28 9 -28 23 0 17 7 20 40 20 28 0 40 4 40 14 0 15 -22
23 -87 34 l-36 5 -13 -71z"/>
<path d="M3085 858 c-2 -7 -6 -56 -7 -108 -3 -91 -2 -95 19 -98 20 -3 22 1 25
60 l3 63 40 -62 c28 -44 46 -63 61 -63 18 0 22 8 28 53 3 28 6 76 6 105 0 49
-1 52 -25 52 -23 0 -25 -3 -25 -50 0 -27 -3 -50 -7 -50 -5 0 -21 21 -38 48
-16 26 -34 50 -40 54 -16 12 -35 9 -40 -4z"/>
<path d="M3488 818 l3 -53 -44 48 c-26 29 -52 47 -65 47 -20 0 -22 -5 -22 -52
0 -29 3 -77 7 -106 5 -47 8 -53 27 -50 19 3 21 8 17 62 -4 67 1 67 55 -4 27
-36 45 -50 62 -50 24 0 25 1 18 73 -12 123 -16 137 -40 137 -19 0 -21 -5 -18
-52z"/>
</g>
</svg>
